<?xml version="1.0" encoding="UTF-8"?>
<svg version="1.1" xmlns="http://www.w3.org/2000/svg" width="315" height="389">
<path d="M0 0 C103.95 0 207.9 0 315 0 C315 128.37 315 256.74 315 389 C211.05 389 107.1 389 0 389 C0 260.63 0 132.26 0 0 Z " fill="#E9E4DE" transform="translate(0,0)"/>
<path d="M0 0 C103.95 0 207.9 0 315 0 C315 128.37 315 256.74 315 389 C211.05 389 107.1 389 0 389 C0 260.63 0 132.26 0 0 Z M130 38 C128.91847656 38.26683594 127.83695312 38.53367188 126.72265625 38.80859375 C107.94560855 43.92960676 91.85028048 54.62731539 78 68 C76.99453125 68.928125 76.99453125 68.928125 75.96875 69.875 C56.46895746 88.31116749 44.97439943 117.63307896 43.90955722 144.26171315 C43.87532784 146.64051911 43.87135303 149.01734163 43.87974548 151.39637756 C43.87888947 152.29620865 43.87803345 153.19603973 43.87715149 154.12313843 C43.87550675 157.12386099 43.88100284 160.12452675 43.88647461 163.12524414 C43.88678117 165.31903551 43.88664707 167.51282698 43.88610935 169.70661831 C43.88588412 175.56740843 43.89166891 181.42817803 43.89871979 187.28896332 C43.90442584 192.79383914 43.90468352 198.29871004 43.90539551 203.80358887 C43.91063733 219.88989528 43.92459853 235.9761979 43.9375 252.0625 C43.958125 288.011875 43.97875 323.96125 44 361 C120.89 361 197.78 361 277 361 C277.061875 324.205 277.12375 287.41 277.1875 249.5 C277.21481201 237.89908203 277.24212402 226.29816406 277.27026367 214.34570312 C277.28029946 203.91034069 277.28029946 203.91034069 277.28633118 193.47497559 C277.28911635 188.84146784 277.30031981 184.20806412 277.31672668 179.57458496 C277.33742698 173.64936721 277.34345082 167.72429897 277.33921683 161.79904842 C277.34010114 159.6338209 277.34597675 157.46858772 277.35764539 155.30339146 C277.5365722 120.46085008 266.82291059 92.57381493 243 67 C242.236875 66.154375 241.47375 65.30875 240.6875 64.4375 C225.31288108 50.49307819 207.14434696 41.47413788 187 37 C186.20891846 36.81977295 185.41783691 36.6395459 184.6027832 36.45385742 C176.8318171 34.84782435 169.23019194 34.65349058 161.3125 34.6875 C160.32046066 34.68973572 160.32046066 34.68973572 159.30838013 34.6920166 C149.16135461 34.73311941 139.79860086 35.32765431 130 38 Z " fill="#E9E4DE" transform="translate(0,0)"/>
<path d="M0 0 C0.66483398 0.18191895 1.32966797 0.36383789 2.01464844 0.55126953 C31.06213284 8.57698189 54.29776311 30.24151398 69 56 C77.58205185 71.41802698 82.18062098 88.70556421 82.12025452 106.34568787 C82.12153615 107.72673292 82.12153615 107.72673292 82.12284368 109.13567787 C82.12448602 112.20953118 82.11899755 115.28332948 82.11352539 118.35717773 C82.11324322 120.56507872 82.11340183 122.7729798 82.1139679 124.98088074 C82.11425472 130.96788682 82.10837651 136.95487284 82.10139394 142.94187427 C82.09514131 149.2012438 82.09455509 155.46061379 82.09336853 161.71998596 C82.0906139 172.22372765 82.08436832 182.72746315 82.07543945 193.23120117 C82.06625411 204.04793257 82.05917877 214.86466197 82.05493164 225.68139648 C82.05466892 226.34864443 82.05440619 227.01589237 82.05413551 227.70335995 C82.05283043 231.05089746 82.05156673 234.39843498 82.05032361 237.74597251 C82.03987197 265.4973203 82.0220819 293.24865924 82 321 C69.79 321 57.58 321 45 321 C44.99413376 318.32946533 44.98826752 315.65893066 44.98222351 312.9074707 C44.92548229 287.71835088 44.85236459 262.52931628 44.76428509 237.34028625 C44.71939572 224.3909283 44.67996529 211.44159743 44.65356445 198.4921875 C44.63052878 187.20025153 44.59706874 175.90840176 44.55129844 164.61653423 C44.52744126 158.64234341 44.50866339 152.66823755 44.50238609 146.69400024 C44.49630119 141.06004576 44.47617929 135.42630848 44.44572449 129.79243469 C44.43699855 127.73509738 44.43321025 125.67773163 44.43499184 123.62037659 C44.45068624 97.11160634 38.92603047 75.19949315 20.75 55.1875 C3.66727848 39.30778704 -17.48283941 33.19022122 -40.27734375 33.7265625 C-59.67394285 34.48672072 -78.32873626 44.33355613 -91.703125 58.30078125 C-99.80961117 67.82728115 -105.69507434 77.85283927 -109 90 C-109.24490582 90.81176036 -109.48981165 91.62352072 -109.74213886 92.45987988 C-112.62367183 103.09062415 -112.44170583 113.54661363 -112.43237305 124.48754883 C-112.44140326 126.63722797 -112.45173354 128.78690199 -112.46325684 130.93656921 C-112.49070496 136.7372811 -112.50009475 142.53789496 -112.50611091 148.33866334 C-112.51552641 154.41385888 -112.5417323 160.48898211 -112.56611633 166.56413269 C-112.60969783 178.05262512 -112.63829605 189.54110345 -112.66143972 201.02965325 C-112.68853622 214.11560008 -112.73244495 227.20147386 -112.77772844 240.28736842 C-112.87045511 267.19154084 -112.94159431 294.09573306 -113 321 C-125.21 321 -137.42 321 -150 321 C-150.11336671 292.43904353 -150.20272784 263.87813435 -150.25532665 235.31699656 C-150.26157912 231.93423106 -150.26805083 228.551466 -150.2746582 225.16870117 C-150.27596976 224.49534014 -150.27728131 223.8219791 -150.2786326 223.12821319 C-150.30030521 212.26886465 -150.33968097 201.40965037 -150.38576398 190.5503811 C-150.43275683 179.38238534 -150.45996973 168.21443494 -150.47044247 157.04633921 C-150.47692699 150.78402777 -150.49202905 144.52201941 -150.52865028 138.25980568 C-150.56293072 132.3492221 -150.57298901 126.43906253 -150.56553841 120.52838898 C-150.56689877 118.37474693 -150.57663793 116.22108868 -150.59602737 114.06753349 C-150.88890584 79.81872818 -139.21631235 51.45313529 -115.25 26.875 C-85.73412099 -2.5139391 -39.46290809 -11.55035092 0 0 Z " fill="#032649" transform="translate(195,39)"/>
<path d="M0 0 C0.33 0 0.66 0 1 0 C1 71.94 1 143.88 1 218 C13.21 218 25.42 218 38 218 C38 172.46 38 126.92 38 80 C45.25764918 83.62882459 48.55664208 87.12917649 51.375 94.6875 C52 98 52 98 52 103 C94.9 103 137.8 103 182 103 C182 100.36 182 97.72 182 95 C183.60113604 89.60622888 186.83934108 85.72269482 191 82 C191.66 81.34 192.32 80.68 193 80 C193.99 80 194.98 80 196 80 C196 125.54 196 171.08 196 218 C208.21 218 220.42 218 233 218 C233 218.33 233 218.66 233 219 C156.11 219 79.22 219 0 219 C0 146.73 0 74.46 0 0 Z " fill="#B72024" transform="translate(44,142)"/>
<path d="M0 0 C5.82466264 3.00834224 10.87240229 7.59854116 13.50390625 13.67578125 C15.69890057 22.14218793 14.99066196 30.40047903 10.71484375 38.015625 C9.07195839 40.18179977 7.47989885 41.43579722 5.2578125 42.9765625 C3.48272771 44.24838358 3.48272771 44.24838358 2.1328125 46.1015625 C1.87631811 48.60194438 1.87631811 48.60194438 2.27734375 51.39453125 C2.3969043 52.46348633 2.51646484 53.53244141 2.63964844 54.63378906 C3.49303226 60.63451374 4.5652696 66.58497091 5.6953125 72.5390625 C6.15897734 74.99533655 6.61877342 77.45234486 7.07421875 79.91015625 C7.27732666 80.98064209 7.48043457 82.05112793 7.68969727 83.15405273 C8.1328125 86.1015625 8.1328125 86.1015625 8.1328125 91.1015625 C-4.4071875 91.1015625 -16.9471875 91.1015625 -29.8671875 91.1015625 C-29.23255894 86.02453399 -28.56208377 81.03835328 -27.7109375 76.00390625 C-27.49308594 74.70775391 -27.27523437 73.41160156 -27.05078125 72.07617188 C-26.82303592 70.73044856 -26.59517044 69.38474558 -26.3671875 68.0390625 C-25.91817161 65.3816932 -25.47057449 62.72409325 -25.0234375 60.06640625 C-24.82556641 58.897146 -24.62769531 57.72788574 -24.42382812 56.52319336 C-24.24013672 55.39405518 -24.05644531 54.26491699 -23.8671875 53.1015625 C-23.64788574 51.84206787 -23.42858398 50.58257324 -23.20263672 49.28491211 C-22.49764603 46.12404284 -22.49764603 46.12404284 -24.34375 44.203125 C-25.05273438 43.71585938 -25.76171875 43.22859375 -26.4921875 42.7265625 C-32.15084299 38.2294205 -35.36161124 34.00300056 -36.30859375 26.6953125 C-36.53858491 19.75106338 -36.33073465 13.66229443 -31.8671875 8.1015625 C-22.78206765 -1.44747836 -12.68282616 -4.86402293 0 0 Z " fill="#BB2025" transform="translate(171.8671875,116.8984375)"/>
<path d="M0 0 C6.93 0 13.86 0 21 0 C21 26.4 21 52.8 21 80 C14.07 80 7.14 80 0 80 C0 53.6 0 27.2 0 0 Z " fill="#E9E3DE" transform="translate(132,262)"/>
<path d="M0 0 C6.6 0 13.2 0 20 0 C20 26.4 20 52.8 20 80 C13.4 80 6.8 80 0 80 C0 53.6 0 27.2 0 0 Z " fill="#EAE3DD" transform="translate(205,262)"/>
<path d="M0 0 C6.6 0 13.2 0 20 0 C20 26.4 20 52.8 20 80 C13.4 80 6.8 80 0 80 C0 53.6 0 27.2 0 0 Z " fill="#EBE4DD" transform="translate(169,262)"/>
<path d="M0 0 C6.6 0 13.2 0 20 0 C20 26.4 20 52.8 20 80 C13.4 80 6.8 80 0 80 C0 53.6 0 27.2 0 0 Z " fill="#EBE4DE" transform="translate(96,262)"/>
<path d="M0 0 C0.33 0 0.66 0 1 0 C1 71.94 1 143.88 1 218 C13.21 218 25.42 218 38 218 C38 172.46 38 126.92 38 80 C45.21662624 83.60831312 48.49003807 87.0878259 51.375 94.5625 C52.02194924 98.12072079 52.14729476 101.39127845 52 105 C50.68 104.34 49.36 103.68 48 103 C48 99.7 48 96.4 48 93 C44.94729537 92.84188612 44.94729537 92.84188612 42 94 C42 92.35 42 90.7 42 89 C41.01 88.505 41.01 88.505 40 88 C40.33 129.91 40.66 171.82 41 215 C117.23 215.495 117.23 215.495 195 216 C194.67 172.11 194.34 128.22 194 83 C191.525 83.495 191.525 83.495 189 84 C190.8125 82 190.8125 82 193 80 C193.99 80 194.98 80 196 80 C196 125.54 196 171.08 196 218 C208.21 218 220.42 218 233 218 C233 218.33 233 218.66 233 219 C156.11 219 79.22 219 0 219 C0 146.73 0 74.46 0 0 Z " fill="#924D55" transform="translate(44,142)"/>
<path d="M0 0 C6.93 0 13.86 0 21 0 C21 26.4 21 52.8 21 80 C14.07 80 7.14 80 0 80 C0 53.6 0 27.2 0 0 Z M2 2 C2 27.41 2 52.82 2 79 C10.415 78.505 10.415 78.505 19 78 C19 52.92 19 27.84 19 2 C13.39 2 7.78 2 2 2 Z " fill="#ECBDB8" transform="translate(132,262)"/>
<path d="M0 0 C6.93 0 13.86 0 21 0 C21 0.66 21 1.32 21 2 C14.73 2 8.46 2 2 2 C2 28.4 2 54.8 2 82 C8.6 82 15.2 82 22 82 C22 55.6 22 29.2 22 2 C22.66 2.33 23.32 2.66 24 3 C24 29.4 24 55.8 24 83 C16.41 83 8.82 83 1 83 C-0.2063665 79.38090049 -0.13189056 76.08176757 -0.11352539 72.31567383 C-0.11374443 71.14458824 -0.11374443 71.14458824 -0.1139679 69.94984436 C-0.11327114 67.36887841 -0.10548982 64.7879846 -0.09765625 62.20703125 C-0.09579123 60.41769958 -0.09436772 58.6283674 -0.09336853 56.83903503 C-0.08954999 52.12902416 -0.07972533 47.41904411 -0.06866455 42.70904541 C-0.05843621 37.90303972 -0.05386786 33.09702906 -0.04882812 28.29101562 C-0.03810249 18.86066136 -0.02051102 9.43033807 0 0 Z " fill="#9A2225" transform="translate(94,260)"/>
<path d="M0 0 C7.21662624 3.60831312 10.49003807 7.0878259 13.375 14.5625 C14.02194924 18.12072079 14.14729476 21.39127845 14 25 C12.68 24.34 11.36 23.68 10 23 C10 19.7 10 16.4 10 13 C6.94729537 12.84188612 6.94729537 12.84188612 4 14 C4 12.35 4 10.7 4 9 C3.34 8.67 2.68 8.34 2 8 C2 50.57 2 93.14 2 137 C1.34 137 0.68 137 0 137 C0 91.79 0 46.58 0 0 Z " fill="#A3333E" transform="translate(82,222)"/>
<path d="M0 0 C0.33 0 0.66 0 1 0 C1 3.3 1 6.6 1 10 C-41.9 10 -84.8 10 -129 10 C-129 7.69 -129 5.38 -129 3 C-128.67 3 -128.34 3 -128 3 C-128 4.65 -128 6.3 -128 8 C-86.09 8 -44.18 8 -1 8 C-0.67 5.36 -0.34 2.72 0 0 Z " fill="#FEDEDA" transform="translate(225,235)"/>
<path d="M0 0 C5.94 0 11.88 0 18 0 C18 26.07 18 52.14 18 79 C11.4 79 4.8 79 -2 79 C-2 57.55 -2 36.1 -2 14 C-1.34 13.67 -0.68 13.34 0 13 C0 34.12 0 55.24 0 77 C5.61 77 11.22 77 17 77 C16.91621094 74.78152344 16.83242187 72.56304687 16.74609375 70.27734375 C15.93257135 47.13706745 16.18751682 24.13702102 17 1 C11.39 1 5.78 1 0 1 C0 0.67 0 0.34 0 0 Z " fill="#FEE5E0" transform="translate(207,263)"/>
<path d="M0 0 C0.33 0 0.66 0 1 0 C1.79658188 4.92296895 2.13720874 9.63065395 2.17358398 14.63183594 C2.180271 15.35955704 2.18695801 16.08727814 2.19384766 16.83705139 C2.20780748 18.40405417 2.21972963 19.9710762 2.22979546 21.53810883 C2.24631731 24.01793054 2.26955357 26.49760748 2.29469299 28.97735596 C2.36519939 36.02307861 2.42577621 43.06885563 2.47680664 50.11474609 C2.50856186 54.43469932 2.54981139 58.75447655 2.59700203 63.07428741 C2.61302262 64.71851707 2.62534394 66.36278706 2.63390923 68.00707245 C2.64603803 70.30014524 2.6701718 72.59280136 2.69702148 74.88574219 C2.70732895 76.19033386 2.71763641 77.49492554 2.72825623 78.83905029 C2.7581633 82.15875512 2.7581633 82.15875512 5 85 C5 85.66 5 86.32 5 87 C3.515 87.495 3.515 87.495 2 88 C1.01 87.34 0.02 86.68 -1 86 C-1.2919297 83.42839078 -1.3888623 81.09757877 -1.35644531 78.52441406 C-1.35848969 77.75347412 -1.36053406 76.98253418 -1.36264038 76.18823242 C-1.365657 73.63045807 -1.3471389 71.07332317 -1.328125 68.515625 C-1.32506754 66.73923909 -1.32319132 64.96285079 -1.32244873 63.1864624 C-1.31783943 59.45722319 -1.30339454 55.72819916 -1.28125 51.99902344 C-1.2530493 47.22641011 -1.24204711 42.45396695 -1.2375679 37.68127823 C-1.23340184 34.00948392 -1.22357316 30.33772377 -1.21169281 26.66594696 C-1.2060064 24.90694195 -1.20124237 23.14793371 -1.19742584 21.38892365 C-1.1905207 18.92361259 -1.17686626 16.45843269 -1.16113281 13.99316406 C-1.16001495 13.26981873 -1.15889709 12.54647339 -1.15774536 11.8012085 C-1.12380301 7.76811446 -0.77553657 3.95806735 0 0 Z " fill="#E7E8EC" transform="translate(83,136)"/>
<path d="M0 0 C5.82841079 3.0102781 10.857311 7.59784702 13.5078125 13.66796875 C15.28852055 20.6016007 15.38647973 28.38620417 12.2578125 34.9140625 C10.1328125 38.1015625 10.1328125 38.1015625 8.1328125 39.1015625 C8.4215625 38.4415625 8.7103125 37.7815625 9.0078125 37.1015625 C11.70962916 29.89671807 12.4146173 23.74160361 12.1328125 16.1015625 C11.4728125 16.1015625 10.8128125 16.1015625 10.1328125 16.1015625 C9.6378125 17.5865625 9.6378125 17.5865625 9.1328125 19.1015625 C6.98068484 14.54411569 6.98068484 14.54411569 7.8203125 12.1015625 C7.9234375 11.4415625 8.0265625 10.7815625 8.1328125 10.1015625 C3.92445897 5.19181671 0.51593299 2.95264523 -5.8671875 2.1015625 C-5.8671875 1.4415625 -5.8671875 0.7815625 -5.8671875 0.1015625 C-8.118937 0.35744312 -10.36858764 0.63184027 -12.6171875 0.9140625 C-13.87015625 1.06488281 -15.123125 1.21570313 -16.4140625 1.37109375 C-19.79018597 2.08527371 -21.44213463 2.70063951 -23.8671875 5.1015625 C-23.9909375 5.7821875 -24.1146875 6.4628125 -24.2421875 7.1640625 C-24.4484375 7.8034375 -24.6546875 8.4428125 -24.8671875 9.1015625 C-27.9296875 10.3515625 -27.9296875 10.3515625 -30.8671875 11.1015625 C-31.5271875 14.4015625 -32.1871875 17.7015625 -32.8671875 21.1015625 C-33.5271875 21.1015625 -34.1871875 21.1015625 -34.8671875 21.1015625 C-32.97870499 31.04094413 -30.27481742 38.12724232 -21.8671875 44.1015625 C-24.62450025 44.02046507 -26.36762367 43.55366777 -28.4296875 41.6875 C-34.62761259 34.65285502 -36.45336303 28.88217948 -36.20703125 19.51171875 C-35.52592836 12.67720354 -32.97102526 8.88638012 -27.9921875 4.2890625 C-19.36757018 -2.64228133 -10.47895319 -4.01881001 0 0 Z " fill="#98282B" transform="translate(171.8671875,116.8984375)"/>
<path d="M0 0 C6.6 0 13.2 0 20 0 C20 26.4 20 52.8 20 80 C13.4 80 6.8 80 0 80 C0 54.59 0 29.18 0 3 C0.66 3 1.32 3 2 3 C1.99777939 3.60038589 1.99555878 4.20077179 1.99327087 4.8193512 C1.97075529 11.19735098 1.95590577 17.57533909 1.94506836 23.95336914 C1.94010913 26.31828267 1.93333969 28.68319326 1.92456055 31.0480957 C1.86789943 46.729892 2.16606245 62.33946134 3 78 C8.28 78.33 13.56 78.66 19 79 C19 53.26 19 27.52 19 1 C12.73 1 6.46 1 0 1 C0 0.67 0 0.34 0 0 Z " fill="#FDCFCC" transform="translate(169,262)"/>
<path d="M0 0 C6.6 0 13.2 0 20 0 C20 26.4 20 52.8 20 80 C19.67 80 19.34 80 19 80 C18.67 54.92 18.34 29.84 18 4 C12.89662421 1.44831211 6.69311026 2.37954068 1 2 C1 27.41 1 52.82 1 79 C6.61 79 12.22 79 18 79 C18 79.33 18 79.66 18 80 C12.06 80 6.12 80 0 80 C0 53.6 0 27.2 0 0 Z " fill="#FDD5D1" transform="translate(96,262)"/>
<path d="M0 0 C0.33 0 0.66 0 1 0 C1.33 3.3 1.66 6.6 2 10 C2.99 9.67 3.98 9.34 5 9 C4.67 10.32 4.34 11.64 4 13 C3.34 13 2.68 13 2 13 C1.67 14.32 1.34 15.64 1 17 C1.66 17 2.32 17 3 17 C2.625 19.9375 2.625 19.9375 2 23 C1.34 23.33 0.68 23.66 0 24 C0 26.64 0 29.28 0 32 C-0.66 32 -1.32 32 -2 32 C-2 32.99 -2 33.98 -2 35 C8.89 35 19.78 35 31 35 C31.33 35.99 31.66 36.98 32 38 C19.46 38 6.92 38 -6 38 C-5.35532694 32.8426155 -4.66863984 27.77242164 -3.80859375 22.65625 C-3.69902847 22.00168823 -3.5894632 21.34712646 -3.47657776 20.67272949 C-3.13176255 18.61489028 -2.78467525 16.55744222 -2.4375 14.5 C-2.20102035 13.09117126 -1.96469095 11.68231729 -1.72851562 10.2734375 C-1.15407674 6.84866556 -0.57760184 3.42424009 0 0 Z " fill="#AD2021" transform="translate(148,170)"/>
<path d="M0 0 C0.33 0 0.66 0 1 0 C1 26.4 1 52.8 1 80 C8.26 79.67 15.52 79.34 23 79 C23 52.93 23 26.86 23 0 C23.33 0 23.66 0 24 0 C24 26.4 24 52.8 24 80 C23.34 80 22.68 80 22 80 C22 80.66 22 81.32 22 82 C15.73 82 9.46 82 3 82 C3 82.66 3 83.32 3 84 C1.68 84 0.36 84 -1 84 C-0.67 56.28 -0.34 28.56 0 0 Z " fill="#B14345" transform="translate(168,262)"/>
<path d="M0 0 C0.66 0.33 1.32 0.66 2 1 C1.2265625 1.67804688 0.453125 2.35609375 -0.34375 3.0546875 C-13.48355194 14.7291076 -23.01175577 26.92259917 -28 44 C-29.9451 41.08235 -30.45276317 39.37462715 -31 36 C-29.515 35.505 -29.515 35.505 -28 35 C-27.67 32.69 -27.34 30.38 -27 28 C-25.68 27.67 -24.36 27.34 -23 27 C-23 25.68 -23 24.36 -23 23 C-22.34 23 -21.68 23 -21 23 C-20.87625 22.29875 -20.7525 21.5975 -20.625 20.875 C-19.96161655 17.82343613 -19.02788045 14.94659062 -18 12 C-17.01 12.33 -16.02 12.66 -15 13 C-14.7525 12.21625 -14.505 11.4325 -14.25 10.625 C-12.79075497 7.56058543 -11.94985044 7.38274239 -9 6 C-8.690625 5.319375 -8.38125 4.63875 -8.0625 3.9375 C-7.5365625 2.9784375 -7.5365625 2.9784375 -7 2 C-4.5 1.3125 -4.5 1.3125 -2 1 C-1.34 0.67 -0.68 0.34 0 0 Z " fill="#172A41" transform="translate(114,85)"/>
<path d="M0 0 C4.43147829 4.43147829 3.32156361 12.90293743 3.5625 18.875 C3.60568359 19.81085938 3.64886719 20.74671875 3.69335938 21.7109375 C3.96265236 28.07138126 4.01003448 34.41358978 3.98376465 40.77931213 C3.97438131 45.58354342 4.07604685 50.37497911 4.25390625 55.17578125 C4.29074272 56.18306274 4.29074272 56.18306274 4.32832336 57.21069336 C4.43003676 59.93307414 4.53522182 62.65525901 4.64819336 65.37719727 C4.98661737 73.66319031 5.04086433 81.75448767 4 90 C3.34 89.67 2.68 89.34 2 89 C1.98969254 88.07673416 1.97938507 87.15346832 1.96876526 86.20222473 C1.8702985 77.45011296 1.76771987 68.69806073 1.66066074 59.94604969 C1.60577789 55.44786076 1.55241834 50.94966507 1.50268555 46.45141602 C1.45452473 42.10063939 1.40217258 37.74993059 1.34705925 33.39923668 C1.32686708 31.74930221 1.30811987 30.09934932 1.29092598 28.44938087 C1.19056759 18.92100849 0.89002728 9.49347168 0 0 Z " fill="#0A1D36" transform="translate(238,131)"/>
<path d="M0 0 C0 45.21 0 90.42 0 137 C-0.33 137 -0.66 137 -1 137 C-1.33 92.78 -1.66 48.56 -2 3 C-3.65 3.33 -5.3 3.66 -7 4 C-3.375 0 -3.375 0 0 0 Z " fill="#8C2C3E" transform="translate(240,222)"/>
<path d="M0 0 C0.99 0 1.98 0 3 0 C4.71731908 1.83628079 6.1949331 3.61679829 7.6875 5.625 C8.34625122 6.49874268 8.34625122 6.49874268 9.01831055 7.39013672 C16.55753661 17.61073458 25.95794103 31.14793938 27 44 C25.35 43.67 23.7 43.34 22 43 C21.24302596 40.53983438 21.01425061 38.78624089 21.1875 36.1875 C20.93369966 31.87289427 19.2541563 29.66300399 17 26 C17 25.34 17 24.68 17 24 C16.34 24 15.68 24 15 24 C14.67386719 23.36191406 14.34773438 22.72382812 14.01171875 22.06640625 C13.57472656 21.24011719 13.13773437 20.41382812 12.6875 19.5625 C12.04361328 18.32693359 12.04361328 18.32693359 11.38671875 17.06640625 C10.09979113 14.69352356 10.09979113 14.69352356 7 14 C5.98470459 11.67328135 4.98511802 9.3396553 4 7 C3.01 6.34 2.02 5.68 1 5 C0.3125 2.375 0.3125 2.375 0 0 Z " fill="#18273D" transform="translate(245,72)"/>
<path d="M0 0 C0.33 0 0.66 0 1 0 C1.33 32.67 1.66 65.34 2 99 C11.9 99 21.8 99 32 99 C32 97.35 32 95.7 32 94 C32.33 94 32.66 94 33 94 C33 95.98 33 97.96 33 100 C21.78 100 10.56 100 -1 100 C-0.67 67 -0.34 34 0 0 Z " fill="#102845" transform="translate(242,259)"/>
<path d="M0 0 C0 43.56 0 87.12 0 132 C-0.33 132 -0.66 132 -1 132 C-1 91.41 -1 50.82 -1 9 C-1.66 9 -2.32 9 -3 9 C-2.67 7.02 -2.34 5.04 -2 3 C-2.66 2.67 -3.32 2.34 -4 2 C-1 0 -1 0 0 0 Z " fill="#B63039" transform="translate(239,224)"/>
<path d="M0 0 C1.65 0.33 3.3 0.66 5 1 C4.67 1.99 4.34 2.98 4 4 C3.34 4 2.68 4 2 4 C1.06619039 8.53140653 1.06619039 8.53140653 2 13 C0.99500868 15.62843884 0.55192629 16.72403685 -2 18 C-2.45798361 21.0730853 -2.45798361 21.0730853 -2.58984375 24.84375 C-2.62665756 25.55317749 -2.66347137 26.26260498 -2.70140076 26.99353027 C-3.13499565 35.82357744 -3.34976652 44.66244329 -3.5625 53.5 C-3.6058499 55.20964228 -3.64946836 56.91927777 -3.69335938 58.62890625 C-3.79865442 62.75253285 -3.90036579 66.8762329 -4 71 C-4.33 71 -4.66 71 -5 71 C-5.27478615 64.5496982 -5.5029023 58.09883101 -5.7019043 51.64575195 C-5.7743993 49.46081985 -5.85673048 47.27618701 -5.94995117 45.09204102 C-6.57830096 30.16615838 -6.87771166 13.75542333 0 0 Z " fill="#142C44" transform="translate(51,110)"/>
<path d="M0 0 C1.32 0.66 2.64 1.32 4 2 C1.87739395 5.17373684 -0.09322654 6.9227747 -3.4375 8.75 C-4.19933594 9.17796875 -4.96117188 9.6059375 -5.74609375 10.046875 C-8 11 -8 11 -12 11 C-11.67 11.99 -11.34 12.98 -11 14 C-12.32 14.33 -13.64 14.66 -15 15 C-15.1546875 16.175625 -15.1546875 16.175625 -15.3125 17.375 C-16 20 -16 20 -19 22 C-19.309375 22.66 -19.61875 23.32 -19.9375 24 C-21.24187242 26.45528927 -22.46627297 26.98650919 -25 28 C-25 21.61144246 -22.30465371 19.5662625 -18 15 C-17.28972656 14.236875 -16.57945313 13.47375 -15.84765625 12.6875 C-10.99591733 7.63964509 -5.995463 3.6142862 0 0 Z " fill="#142840" transform="translate(95,54)"/>
<path d="M0 0 C0.66 0 1.32 0 2 0 C1.91574749 11.04820109 1.82092353 22.09625542 1.71247292 33.14424706 C1.66245388 38.27387139 1.6161245 43.40347456 1.578125 48.53320312 C1.54134284 53.48050156 1.49500251 58.4276253 1.44193649 63.37477493 C1.42335484 65.26544771 1.40826093 67.15615798 1.39665604 69.04688644 C1.37985784 71.68817924 1.3508391 74.32906864 1.31884766 76.97021484 C1.31668747 77.75783707 1.31452728 78.54545929 1.31230164 79.35694885 C1.23448232 84.36170989 0.46085029 85.53914971 -3 89 C-3 87.68 -3 86.36 -3 85 C-1.515 84.505 -1.515 84.505 0 84 C-0.01474869 82.97713898 -0.02949738 81.95427795 -0.04469299 80.90042114 C-0.18279061 71.27675255 -0.31552525 61.65302306 -0.4429636 52.02920723 C-0.50865976 47.08111515 -0.57626756 42.13306436 -0.64819336 37.18505859 C-0.71749226 32.41298472 -0.78183609 27.64086776 -0.84269524 22.86867905 C-0.86683368 21.04493647 -0.89277967 19.22121692 -0.92053413 17.39752579 C-0.95900272 14.84985202 -0.99113439 12.30217328 -1.02172852 9.75439453 C-1.03467453 8.99482452 -1.04762054 8.23525452 -1.06095886 7.45266724 C-1.11405216 2.22810432 -1.11405216 2.22810432 0 0 Z " fill="#DBD9D8" transform="translate(237,136)"/>
<path d="M0 0 C0.33 0 0.66 0 1 0 C1.125 7.75 1.125 7.75 0 10 C1.546875 9.75443359 1.546875 9.75443359 3.125 9.50390625 C9.39649677 8.71996915 15.69083019 8.89419524 22 8.9375 C23.87751953 8.94426758 23.87751953 8.94426758 25.79296875 8.95117188 C28.86202941 8.96288585 31.93098907 8.97928927 35 9 C35.495 10.485 35.495 10.485 36 12 C23.46 12 10.92 12 -2 12 C-0.875 3 -0.875 3 0 0 Z " fill="#931D1D" transform="translate(144,196)"/>
<path d="M0 0 C3.62605799 0.54940273 4.96930216 1.70182858 7.125 4.625 C11.28506835 10.51843016 12.29281695 15.82598484 12 23 C10.68 22.34 9.36 21.68 8 21 C8 17.7 8 14.4 8 11 C4.94729537 10.84188612 4.94729537 10.84188612 2 12 C2 10.35 2 8.7 2 7 C1.34 6.67 0.68 6.34 0 6 C0 4.02 0 2.04 0 0 Z " fill="#A62A2D" transform="translate(84,224)"/>
<path d="M0 0 C0 0.99 0 1.98 0 3 C-3.65485352 3.75246984 -7.30193777 4.49571879 -11 5 C-11.33 4.67 -11.66 4.34 -12 4 C-12.33 5.32 -12.66 6.64 -13 8 C-17.29625631 7.51178906 -19.6615409 6.70705488 -23 4 C-21.43979133 3.34865075 -19.87671421 2.70417036 -18.3125 2.0625 C-17.44238281 1.70285156 -16.57226562 1.34320313 -15.67578125 0.97265625 C-9.981117 -1.09737499 -5.89533624 -0.89928858 0 0 Z " fill="#DFDDDE" transform="translate(152,74)"/>
<path d="M0 0 C0 0.66 0 1.32 0 2 C-9.24 2.33 -18.48 2.66 -28 3 C-28.33 2.34 -28.66 1.68 -29 1 C-28 -1 -28 -1 -26.21875 -1.6171875 C-18.77654154 -2.90123051 -6.77157469 -3.38578735 0 0 Z " fill="#182A42" transform="translate(174,70)"/>
<path d="M0 0 C0.33 0 0.66 0 1 0 C1.33 8.25 1.66 16.5 2 25 C8.93 25.33 15.86 25.66 23 26 C23 26.66 23 27.32 23 28 C19.73063506 28.25485425 16.45983259 28.47442831 13.1875 28.6875 C12.25873047 28.76033203 11.32996094 28.83316406 10.37304688 28.90820312 C9.48037109 28.96298828 8.58769531 29.01777344 7.66796875 29.07421875 C6.43469849 29.16062622 6.43469849 29.16062622 5.17651367 29.2487793 C3 29 3 29 1.2265625 27.86914062 C-0.5259604 25.19849665 -0.33943436 23.19468112 -0.29296875 20.01953125 C-0.28330078 18.85615234 -0.27363281 17.69277344 -0.26367188 16.49414062 C-0.2259668 14.67172852 -0.2259668 14.67172852 -0.1875 12.8125 C-0.17396484 11.58595703 -0.16042969 10.35941406 -0.14648438 9.09570312 C-0.11108741 6.06336336 -0.0617076 3.03190004 0 0 Z " fill="#9F282C" transform="translate(130,316)"/>
<path d="M0 0 C10.31318368 -0.61879102 20.53310415 2.02390374 30 6 C26.26910006 7.24363331 23.24075023 6.71642884 19.4375 6.1875 C18.75236328 6.10435547 18.06722656 6.02121094 17.36132812 5.93554688 C12.24809559 5.24809559 12.24809559 5.24809559 10 3 C7.57284794 2.32059533 7.57284794 2.32059533 4.875 1.875 C3.96492187 1.70742188 3.05484375 1.53984375 2.1171875 1.3671875 C1.41851562 1.24601562 0.71984375 1.12484375 0 1 C0 0.67 0 0.34 0 0 Z " fill="#0B1B34" transform="translate(173,36)"/>
<path d="M0 0 C6.6 0 13.2 0 20 0 C19.67 0.99 19.34 1.98 19 3 C13.39 3 7.78 3 2 3 C2 6.63 2 10.26 2 14 C1.01 14.495 1.01 14.495 0 15 C0 10.05 0 5.1 0 0 Z " fill="#F4CDCB" transform="translate(205,262)"/>
<path d="M0 0 C2.5 0.3125 2.5 0.3125 5 1 C7.56653653 6.13307305 6.83104747 14.30992692 5.17578125 19.66796875 C2.74592883 24.62703559 2.74592883 24.62703559 0 26 C0.28875 25.34 0.5775 24.68 0.875 24 C3.57681666 16.79515557 4.2818048 10.64004111 4 3 C3.34 3 2.68 3 2 3 C1.67 3.99 1.34 4.98 1 6 C0.34 4.35 -0.32 2.7 -1 1 C-0.67 0.67 -0.34 0.34 0 0 Z " fill="#9A2127" transform="translate(180,130)"/>
<path d="M0 0 C1.98 0 3.96 0 6 0 C6 3.3 6 6.6 6 10 C5.34 9.01 4.68 8.02 4 7 C4 7.66 4 8.32 4 9 C3.01 9 2.02 9 1 9 C-0.70532323 10.94009522 -0.70532323 10.94009522 -2 13 C-2.16682272 8.07872966 -2.24828052 4.49656104 0 0 Z " fill="#A92324" transform="translate(228,232)"/>
<path d="M0 0 C0.66 0.33 1.32 0.66 2 1 C0.77023438 2.12148437 0.77023438 2.12148437 -0.484375 3.265625 C-1.57296139 4.26036773 -2.66150055 5.25516213 -3.75 6.25 C-4.55824219 6.98669922 -4.55824219 6.98669922 -5.3828125 7.73828125 C-8.3243716 10.42873164 -11.2073768 13.1531511 -14 16 C-14.66 15.67 -15.32 15.34 -16 15 C-15.34 14.34 -14.68 13.68 -14 13 C-14.33 12.34 -14.66 11.68 -15 11 C-13.30146995 9.30146995 -11.59879391 7.61059409 -9.875 5.9375 C-7.94179513 4.13411958 -7.94179513 4.13411958 -7 2 C-5.34385343 1.61781233 -3.67542976 1.28604898 -2 1 C-1.34 0.67 -0.68 0.34 0 0 Z " fill="#132237" transform="translate(114,85)"/>
<path d="M0 0 C0.99 0.33 1.98 0.66 3 1 C2.34 1 1.68 1 1 1 C1.33 1.99 1.66 2.98 2 4 C0.68 4.33 -0.64 4.66 -2 5 C-2.1546875 6.175625 -2.1546875 6.175625 -2.3125 7.375 C-3 10 -3 10 -6 12 C-6.309375 12.66 -6.61875 13.32 -6.9375 14 C-8.24187242 16.45528927 -9.46627297 16.98650919 -12 18 C-12 13.64989166 -11.76940421 12.3656157 -8.8125 9.125 C-8.17828125 8.42632812 -7.5440625 7.72765625 -6.890625 7.0078125 C-4.64038137 4.61809096 -2.35642724 2.28502036 0 0 Z " fill="#0B192F" transform="translate(82,64)"/>
<path d="M0 0 C-1.36983503 3.16115776 -1.9890638 3.9927092 -5 6 C-5.05632424 8.80435411 -4.95814702 11.35146678 -4.6875 14.125 C-4.62626953 14.87910156 -4.56503906 15.63320312 -4.50195312 16.41015625 C-4.3485467 18.27463438 -4.17606541 20.13752498 -4 22 C-4.66 22.33 -5.32 22.66 -6 23 C-9.8901454 8.30775444 -9.8901454 8.30775444 -6.25 1.9375 C-4 0 -4 0 0 0 Z " fill="#9F2D33" transform="translate(179,157)"/>
<path d="M0 0 C5.33427362 0.17489422 5.33427362 0.17489422 8 1 C9.8125 3.875 9.8125 3.875 11 7 C11.8353125 7.7734375 11.8353125 7.7734375 12.6875 8.5625 C14 10 14 10 14.1875 12.6875 C14.125625 13.450625 14.06375 14.21375 14 15 C12.9029946 13.9029946 11.80635878 12.80561849 10.7109375 11.70703125 C9.36694043 10.36610267 8.01666607 9.03146541 6.6640625 7.69921875 C5.43816406 6.48685547 5.43816406 6.48685547 4.1875 5.25 C3.39730469 4.47140625 2.60710937 3.6928125 1.79296875 2.890625 C0 1 0 1 0 0 Z " fill="#122039" transform="translate(211,89)"/>
<path d="M0 0 C0.66 0 1.32 0 2 0 C2 1.65 2 3.3 2 5 C0.02 5.99 0.02 5.99 -2 7 C-1.67 8.32 -1.34 9.64 -1 11 C-2.32 11.99 -3.64 12.98 -5 14 C-5 13.34 -5 12.68 -5 12 C-5.99 12.33 -6.98 12.66 -8 13 C-6.44759763 8.03231242 -3.48945219 3.82132943 0 0 Z " fill="#182B4B" transform="translate(67,81)"/>
<path d="M0 0 C0.66 0 1.32 0 2 0 C2 0.66 2 1.32 2 2 C1.34 2 0.68 2 0 2 C0 1.34 0 0.68 0 0 Z M-32 2 C-21.44 2 -10.88 2 0 2 C0 2.66 0 3.32 0 4 C1.32 4.33 2.64 4.66 4 5 C-3.92295423 5.16303307 -11.73168697 4.65117633 -19.625 4 C-21.41744141 3.85691406 -21.41744141 3.85691406 -23.24609375 3.7109375 C-26.1643648 3.47747582 -29.08229576 3.24042446 -32 3 C-32 2.67 -32 2.34 -32 2 Z " fill="#EFF0F2" transform="translate(182,31)"/>
<path d="M0 0 C7.26 0 14.52 0 22 0 C22 0.66 22 1.32 22 2 C15.73 2 9.46 2 3 2 C3 2.66 3 3.32 3 4 C1.68 4 0.36 4 -1 4 C-0.67 2.68 -0.34 1.36 0 0 Z " fill="#9D272B" transform="translate(168,342)"/>
<path d="M0 0 C0.33 0 0.66 0 1 0 C1.33 3.3 1.66 6.6 2 10 C2.99 9.67 3.98 9.34 5 9 C4.67 10.32 4.34 11.64 4 13 C3.34 13 2.68 13 2 13 C1.67 14.32 1.34 15.64 1 17 C1.66 17 2.32 17 3 17 C3 17.66 3 18.32 3 19 C1.0625 18.3125 1.0625 18.3125 -1 17 C-2.25996059 12.9910345 -1.82550925 9.77184361 -1.0625 5.6875 C-0.86785156 4.61886719 -0.67320312 3.55023438 -0.47265625 2.44921875 C-0.31667969 1.64097656 -0.16070312 0.83273438 0 0 Z " fill="#B13132" transform="translate(148,170)"/>
<path d="M0 0 C2.4375 0.9375 2.4375 0.9375 5 3 C5.57319474 5.27554001 5.74843462 7.40445921 5.859375 9.74609375 C5.91636969 12.01394835 5.91636969 12.01394835 6.640625 14.16015625 C6.75921875 14.76730469 6.8778125 15.37445313 7 16 C6.34 16.66 5.68 17.32 5 18 C4.85304688 17.443125 4.70609375 16.88625 4.5546875 16.3125 C2.76414806 10.22054972 0.07618326 5.84129209 -4 1 C-2.68 1.33 -1.36 1.66 0 2 C0 1.34 0 0.68 0 0 Z " fill="#F6DEDA" transform="translate(90,222)"/>
<path d="M0 0 C-1.12451727 2.9719385 -2.22293791 5.33440687 -4 8 C-4 7.01 -4 6.02 -4 5 C-7.2117961 6.63778399 -7.2117961 6.63778399 -7.51171875 9.3828125 C-7.56972656 10.28773438 -7.62773437 11.19265625 -7.6875 12.125 C-7.75324219 13.03507813 -7.81898438 13.94515625 -7.88671875 14.8828125 C-7.92410156 15.58148438 -7.96148437 16.28015625 -8 17 C-8.33 17 -8.66 17 -9 17 C-11.00740974 6.57496453 -11.00740974 6.57496453 -8.61328125 2.83203125 C-3.92295259 -1.30765086 -3.92295259 -1.30765086 0 0 Z " fill="#F4DCDA" transform="translate(183,158)"/>
<path d="M0 0 C3 0.25 3 0.25 5 2.25 C4.45730469 2.64832031 3.91460937 3.04664062 3.35546875 3.45703125 C2.28232422 4.25173828 2.28232422 4.25173828 1.1875 5.0625 C0.12595703 5.84560547 0.12595703 5.84560547 -0.95703125 6.64453125 C-2.78531393 8.08128877 -4.39896688 9.56815763 -6 11.25 C-7 8.25 -7 8.25 -6 5.25 C-5.34 5.25 -4.68 5.25 -4 5.25 C-4.33 4.26 -4.66 3.27 -5 2.25 C-3 0.25 -3 0.25 0 0 Z " fill="#EED9D3" transform="translate(145,115.75)"/>
<path d="M0 0 C0.93423645 3.01031744 1.04449911 3.86650268 0 7 C0.31052686 9.30336625 0.31052686 9.30336625 0.9375 11.6875 C1.13214844 12.49574219 1.32679688 13.30398437 1.52734375 14.13671875 C1.68332031 14.75160156 1.83929688 15.36648437 2 16 C2.66 16 3.32 16 4 16 C4.33 14.68 4.66 13.36 5 12 C5.5625 13.9375 5.5625 13.9375 6 16 C5.67 16.33 5.34 16.66 5 17 C4.63239269 19.32817964 4.29758419 21.6618385 4 24 C1.79093756 20.68640634 0.65650407 17.37244279 -0.5625 13.625 C-0.78357422 12.965 -1.00464844 12.305 -1.23242188 11.625 C-2.39134851 8.10970592 -3.37302996 4.64910653 -4 1 C-3.01 1.33 -2.02 1.66 -1 2 C-0.67 1.34 -0.34 0.68 0 0 Z " fill="#EDECEE" transform="translate(271,99)"/>
<path d="M0 0 C3.28804994 3.28804994 2.86611551 7.50269825 3 12 C2.80523787 15.6865689 2.45269242 19.33667365 2 23 C1.67 23 1.34 23 1 23 C-2.18181818 4.36363636 -2.18181818 4.36363636 0 0 Z " fill="#11263F" transform="translate(273,123)"/>
<path d="M0 0 C0.66 0 1.32 0 2 0 C1.67 2.31 1.34 4.62 1 7 C0.34 7 -0.32 7 -1 7 C-0.67 8.98 -0.34 10.96 0 13 C-1.65 13.33 -3.3 13.66 -5 14 C-4.53411505 8.29290936 -3.06242216 4.84060277 0 0 Z " fill="#E2E0E4" transform="translate(93,110)"/>
<path d="M0 0 C0 11.88 0 23.76 0 36 C-0.33 36 -0.66 36 -1 36 C-1.33 25.11 -1.66 14.22 -2 3 C-3.65 3.33 -5.3 3.66 -7 4 C-3.375 0 -3.375 0 0 0 Z " fill="#933441" transform="translate(240,222)"/>
<path d="M0 0 C0 3 0 3 -2.1875 5.5 C-4.7583979 7.78524258 -6.86840549 9.59078247 -10 11 C-12.8125 10.6875 -12.8125 10.6875 -15 10 C-10.39486061 6.00887919 -5.24516756 3.05543741 0 0 Z " fill="#DBDCE1" transform="translate(127,79)"/>
<path d="M0 0 C6.13200302 1.4523165 11.21909929 4.99386976 16 9 C16 9.66 16 10.32 16 11 C13.69 11 11.38 11 9 11 C8.67 9.35 8.34 7.7 8 6 C3.545 5.01 3.545 5.01 -1 4 C-0.67 2.68 -0.34 1.36 0 0 Z " fill="#0D1B30" transform="translate(212,46)"/>
<path d="M0 0 C1.32 0.33 2.64 0.66 4 1 C4.28875 2.134375 4.5775 3.26875 4.875 4.4375 C5.24625 5.613125 5.6175 6.78875 6 8 C6.66 8.33 7.32 8.66 8 9 C8.33 8.01 8.66 7.02 9 6 C10.0161692 10.62921525 9.83796731 14.34462607 9 19 C6.9654959 16.9654959 6.32946725 15.70645577 5.2734375 13.0859375 C4.9640625 12.32539062 4.6546875 11.56484375 4.3359375 10.78125 C3.86027344 9.59015625 3.86027344 9.59015625 3.375 8.375 C2.88773438 7.17230469 2.88773438 7.17230469 2.390625 5.9453125 C1.58921947 3.96536943 0.79401638 1.9829179 0 0 Z " fill="#102138" transform="translate(229,111)"/>
<path d="M0 0 C2.31 0 4.62 0 7 0 C9 4.75 9 4.75 9 7 C10.099763 8.56266521 10.099763 8.56266521 11.5 10.125 C12.325 11.07375 13.15 12.0225 14 13 C7.54907138 10.27076097 3.52816126 5.83503593 0 0 Z " fill="#E5E8EF" transform="translate(236,60)"/>
<path d="M0 0 C-0.33 1.32 -0.66 2.64 -1 4 C-1 3.34 -1 2.68 -1 2 C-7.93 2 -14.86 2 -22 2 C-21.67 1.34 -21.34 0.68 -21 0 C-17.87549468 -0.19645093 -14.75038555 -0.38063489 -11.625 -0.5625 C-10.29082031 -0.64661133 -10.29082031 -0.64661133 -8.9296875 -0.73242188 C-7.65351563 -0.80493164 -7.65351563 -0.80493164 -6.3515625 -0.87890625 C-5.56604004 -0.9260376 -4.78051758 -0.97316895 -3.97119141 -1.02172852 C-2 -1 -2 -1 0 0 Z " fill="#992326" transform="translate(154,260)"/>
<path d="M0 0 C0.33 0 0.66 0 1 0 C2.22399452 6.64041122 2.11227753 13.20221697 2.0625 19.9375 C2.05798828 21.09830078 2.05347656 22.25910156 2.04882812 23.45507812 C2.03710647 26.30343934 2.0206976 29.15169222 2 32 C1.67 32 1.34 32 1 32 C0.67 26.06 0.34 20.12 0 14 C-0.33 14 -0.66 14 -1 14 C-1.08333357 9.1666528 -0.95261487 4.76307437 0 0 Z " fill="#D1D3D5" transform="translate(83,136)"/>
<path d="M0 0 C2.5 -0.5 2.5 -0.5 6 0 C8.95370122 2.41377734 11.48389665 5.13904999 14 8 C13.34 9.32 12.68 10.64 12 12 C9 8.25 9 8.25 9 6 C8.34 6 7.68 6 7 6 C7 5.34 7 4.68 7 4 C6.01 4.33 5.02 4.66 4 5 C3.67 4.01 3.34 3.02 3 2 C2.01 1.34 1.02 0.68 0 0 Z " fill="#DBDDE0" transform="translate(206,90)"/>
<path d="M0 0 C3.44216672 2.6598561 3.99504674 5.90288286 5 10 C5.99 10 6.98 10 8 10 C8.33 11.65 8.66 13.3 9 15 C8.01 15.495 8.01 15.495 7 16 C5.63058132 14.0942007 4.27988837 12.17493427 2.9375 10.25 C2.18339844 9.18265625 1.42929688 8.1153125 0.65234375 7.015625 C-1 4 -1 4 -0.74609375 1.609375 C-0.49988281 1.07828125 -0.25367188 0.5471875 0 0 Z " fill="#DDE0E3" transform="translate(253,74)"/>
<path d="M0 0 C4.27454425 2.7479213 8.14126153 5.69250989 12 9 C10.02 9.99 10.02 9.99 8 11 C7.2575 10.05125 6.515 9.1025 5.75 8.125 C3.72154781 5.67467599 2.0422152 4.12674637 -1 3 C-0.67 2.01 -0.34 1.02 0 0 Z " fill="#202D43" transform="translate(228,55)"/>
<path d="M0 0 C0 0.66 0 1.32 0 2 C0.66 2.33 1.32 2.66 2 3 C1.67 4.32 1.34 5.64 1 7 C-2.3 5.35 -5.6 3.7 -9 2 C-5.945634 -1.054366 -3.9532319 -1.22686507 0 0 Z " fill="#DDDEDF" transform="translate(223,45)"/>
<path d="M0 0 C1.65 0 3.3 0 5 0 C4.01 1.485 4.01 1.485 3 3 C3 3.99 3 4.98 3 6 C1.72245446 8.0360882 0.39300182 10.04109119 -1 12 C-2.125 10.25 -2.125 10.25 -3 8 C-2.1875 6 -2.1875 6 -1 4 C-0.63215869 2.6757713 -0.28797019 1.34386088 0 0 Z " fill="#192642" transform="translate(96,97)"/>
<path d="M0 0 C0.66 0.33 1.32 0.66 2 1 C1.67 1.66 1.34 2.32 1 3 C3.93720508 4.52299523 6.9168649 5.80100302 10 7 C10 7.66 10 8.32 10 9 C4.73840541 9.64165788 2.31407151 8.20577001 -1.6796875 5.09375 C-2.11539063 4.7328125 -2.55109375 4.371875 -3 4 C-2.67 3.01 -2.34 2.02 -2 1 C-1.34 0.67 -0.68 0.34 0 0 Z " fill="#1D3047" transform="translate(206,81)"/>
<path d="M0 0 C-1.32 0.33 -2.64 0.66 -4 1 C-4 1.66 -4 2.32 -4 3 C-5.051875 3.0825 -6.10375 3.165 -7.1875 3.25 C-11.27047209 4.05320762 -13.0122727 5.19334709 -16 8 C-16.66 7.67 -17.32 7.34 -18 7 C-12.86067501 0.95373531 -7.55268458 -0.53001295 0 0 Z " fill="#0F1F36" transform="translate(116,46)"/>
<path d="M0 0 C0.99 0.33 1.98 0.66 3 1 C2.67 2.32 2.34 3.64 2 5 C2.99 5 3.98 5 5 5 C4.67 5.99 4.34 6.98 4 8 C4 7.34 4 6.68 4 6 C3.34 6 2.68 6 2 6 C1.34 7.32 0.68 8.64 0 10 C-0.99 9.34 -1.98 8.68 -3 8 C-1.125 2.25 -1.125 2.25 0 0 Z " fill="#172B45" transform="translate(58,94)"/>
<path d="M0 0 C-0.66 0.66 -1.32 1.32 -2 2 C-2 2.33 -2 2.66 -2 3 C-3.134375 3.12375 -4.26875 3.2475 -5.4375 3.375 C-7.2009375 3.684375 -7.2009375 3.684375 -9 4 C-9.33 4.66 -9.66 5.32 -10 6 C-12.64 6 -15.28 6 -18 6 C-14.98197997 3.51708991 -12.10316563 2.08659645 -8.4375 0.75 C-7.48746094 0.39421875 -6.53742188 0.0384375 -5.55859375 -0.328125 C-3 -1 -3 -1 0 0 Z " fill="#283549" transform="translate(128,40)"/>
<path d="M0 0 C0.33 0 0.66 0 1 0 C0.41523944 7.09406894 -0.63233995 14.01563899 -2 21 C-2.33 21 -2.66 21 -3 21 C-3.33 16.05 -3.66 11.1 -4 6 C-3.01 5.34 -2.02 4.68 -1 4 C-0.27617533 1.94074861 -0.27617533 1.94074861 0 0 Z " fill="#EDF1F4" transform="translate(47,118)"/>
<path d="M0 0 C2.76544722 3.45680903 4.84921278 7.14341602 7 11 C4.03 10.505 4.03 10.505 1 10 C1 9.01 1 8.02 1 7 C0.34 6.67 -0.32 6.34 -1 6 C-1.042721 4.33388095 -1.04063832 2.66617115 -1 1 C-0.67 0.67 -0.34 0.34 0 0 Z " fill="#F3D3D0" transform="translate(136,147)"/>
<path d="M0 0 C2 3 2 3 1.79296875 5.234375 C1.59316406 6.06453125 1.39335938 6.8946875 1.1875 7.75 C0.25944469 11.83344338 -0.45856828 15.84902345 -1 20 C-1.33 20 -1.66 20 -2 20 C-2.3690205 6.3667426 -2.3690205 6.3667426 0 0 Z " fill="#0D1C30" transform="translate(48,121)"/>
<path d="M0 0 C2.3129482 2.3129482 2.49580975 3.47904875 3.125 6.625 C3.29257812 7.44226563 3.46015625 8.25953125 3.6328125 9.1015625 C3.81457031 10.04128906 3.81457031 10.04128906 4 11 C2.35 10.67 0.7 10.34 -1 10 C-2.46726798 6.18510326 -1.43336419 3.70988378 0 0 Z " fill="#24344A" transform="translate(268,105)"/>
<path d="M0 0 C0.80050781 0.12761719 1.60101563 0.25523438 2.42578125 0.38671875 C3.23402344 0.50660156 4.04226562 0.62648437 4.875 0.75 C5.48988281 0.85699219 6.10476562 0.96398438 6.73828125 1.07421875 C6.73828125 2.06421875 6.73828125 3.05421875 6.73828125 4.07421875 C5.11504039 4.29584204 3.48956025 4.50111678 1.86328125 4.69921875 C0.50589844 4.87324219 0.50589844 4.87324219 -0.87890625 5.05078125 C-1.66523438 5.05851562 -2.4515625 5.06625 -3.26171875 5.07421875 C-3.92171875 4.41421875 -4.58171875 3.75421875 -5.26171875 3.07421875 C-3.53640014 0.90221572 -2.83921072 0.09316926 0 0 Z " fill="#DEDEE0" transform="translate(139.26171875,31.92578125)"/>
<path d="M0 0 C0.33 0 0.66 0 1 0 C1.0814222 2.22855574 1.13938079 4.45797655 1.1875 6.6875 C1.22230469 7.92886719 1.25710937 9.17023438 1.29296875 10.44921875 C0.9846829 14.18564321 0.18088273 16.00629483 -2 19 C-2.99 18.67 -3.98 18.34 -5 18 C-4.360625 16.88625 -3.72125 15.7725 -3.0625 14.625 C-0.64256752 9.85354302 -0.2167031 5.28755567 0 0 Z " fill="#F2C6C5" transform="translate(186,137)"/>
<path d="M0 0 C0.99 0.33 1.98 0.66 3 1 C2.67 3.31 2.34 5.62 2 8 C1.67 8 1.34 8 1 8 C0.67 10.31 0.34 12.62 0 15 C-0.33 15 -0.66 15 -1 15 C-2.51708428 4.44191344 -2.51708428 4.44191344 0 0 Z " fill="#ECD8D2" transform="translate(179,183)"/>
<path d="M0 0 C0.66 0.33 1.32 0.66 2 1 C1.84660156 1.52078125 1.69320312 2.0415625 1.53515625 2.578125 C0.86017489 5.63278515 0.65588882 8.63015971 0.4375 11.75 C0.35371094 12.92046875 0.26992187 14.0909375 0.18359375 15.296875 C0.12300781 16.18890625 0.06242188 17.0809375 0 18 C-0.33 18 -0.66 18 -1 18 C-1.33 12.39 -1.66 6.78 -2 1 C-1.34 0.67 -0.68 0.34 0 0 Z " fill="#F6D8D0" transform="translate(136,128)"/>
<path d="M0 0 C0 0.33 0 0.66 0 1 C-0.90492188 1.07347656 -0.90492188 1.07347656 -1.828125 1.1484375 C-2.62734375 1.22320312 -3.4265625 1.29796875 -4.25 1.375 C-5.43335938 1.47941406 -5.43335938 1.47941406 -6.640625 1.5859375 C-9.11859011 2.02081217 -10.81289413 2.78095738 -13 4 C-15 5 -17 6 -19 7 C-18.01526648 4.14427279 -17.0416157 3.02987794 -14.5625 1.25 C-9.66393985 -0.46879304 -5.1391805 -0.24690013 0 0 Z " fill="#9E3E3E" transform="translate(165,115)"/>
<path d="M0 0 C0.66 0 1.32 0 2 0 C2.84584998 1.55575978 3.67618399 3.1199612 4.5 4.6875 C5.19609375 5.99267578 5.19609375 5.99267578 5.90625 7.32421875 C7.04818792 10.11788829 7.21504208 12.01629113 7 15 C5.35580556 12.53370834 3.84141254 10.07265358 2.375 7.5 C1.92898438 6.7265625 1.48296875 5.953125 1.0234375 5.15625 C0 3 0 3 0 0 Z " fill="#162034" transform="translate(261,93)"/>
<path d="M0 0 C0.99 0.99 1.98 1.98 3 3 C1.95125002 5.62187494 1.35068687 6.79371361 -1.125 8.25 C-1.74375 8.4975 -2.3625 8.745 -3 9 C-3 4.79796464 -2.70452381 3.26796627 0 0 Z " fill="#0F223C" transform="translate(73,73)"/>
<path d="M0 0 C0.66 0 1.32 0 2 0 C1.88556397 2.0839403 1.75804453 4.16716493 1.625 6.25 C1.55539063 7.41015625 1.48578125 8.5703125 1.4140625 9.765625 C1.03751692 12.70694334 0.5225877 14.49949011 -1 17 C-1.33 14.69 -1.66 12.38 -2 10 C-1.34 10 -0.68 10 0 10 C0 6.7 0 3.4 0 0 Z " fill="#F2C4C0" transform="translate(145,177)"/>
<path d="M0 0 C2.0625 0.4375 2.0625 0.4375 4 1 C4 1.99 4 2.98 4 4 C4.99 4.33 5.98 4.66 7 5 C6.67 6.32 6.34 7.64 6 9 C3.35247996 6.42215154 1.05567935 4.08351902 -1 1 C-0.67 0.67 -0.34 0.34 0 0 Z " fill="#F2D4CF" transform="translate(177,118)"/>
<path d="M0 0 C-1.57725347 0.70133599 -3.16211333 1.385583 -4.75 2.0625 C-5.63171875 2.44535156 -6.5134375 2.82820313 -7.421875 3.22265625 C-10.15256309 4.04600008 -11.36901347 3.9773992 -14 3 C-13 1 -13 1 -11.07421875 0.33203125 C-10.28660156 0.16058594 -9.49898437 -0.01085937 -8.6875 -0.1875 C-7.90761719 -0.36667969 -7.12773437 -0.54585938 -6.32421875 -0.73046875 C-3.90795241 -1.01067443 -2.29757048 -0.74132137 0 0 Z " fill="#0D1932" transform="translate(141,74)"/>
<path d="M0 0 C0.33 0 0.66 0 1 0 C0.88490339 1.41750563 0.75746342 2.83401169 0.625 4.25 C0.55539063 5.03890625 0.48578125 5.8278125 0.4140625 6.640625 C-0.01507113 9.085877 -0.78600638 10.84836903 -2 13 C-3.34939759 5.76232202 -3.34939759 5.76232202 -1.625 2 C-1.08875 1.34 -0.5525 0.68 0 0 Z " fill="#F0C9C6" transform="translate(143,195)"/>
<path d="M0 0 C0 1.65 0 3.3 0 5 C-0.33 4.34 -0.66 3.68 -1 3 C-3.3140622 2.26924352 -5.64828869 1.59861742 -8 1 C-8 0.34 -8 -0.32 -8 -1 C-4.59745511 -2.2151946 -3.06748874 -1.86240388 0 0 Z " fill="#0B2142" transform="translate(242,67)"/>
<path d="M0 0 C1.65 0.99 3.3 1.98 5 3 C1.5980513 5.09350689 -1.05272412 5.17942163 -5 5 C-3.35 3.35 -1.7 1.7 0 0 Z " fill="#0F2847" transform="translate(105,49)"/>
<path d="M0 0 C1.3357457 3.77371512 0.72408671 6.85831347 0.0625 10.75 C-0.13214844 11.92046875 -0.32679688 13.0909375 -0.52734375 14.296875 C-0.68332031 15.18890625 -0.83929688 16.0809375 -1 17 C-1.33 17 -1.66 17 -2 17 C-2.05398987 14.72942623 -2.09278742 12.45848712 -2.125 10.1875 C-2.14820313 8.92292969 -2.17140625 7.65835938 -2.1953125 6.35546875 C-2 3 -2 3 0 0 Z " fill="#932E2F" transform="translate(138,130)"/>
<path d="M0 0 C0.33 0.66 0.66 1.32 1 2 C1.99 2.33 2.98 2.66 4 3 C4 4.65 4 6.3 4 8 C3.34 7.34 2.68 6.68 2 6 C1.01 6.99 0.02 7.98 -1 9 C-0.67 6.03 -0.34 3.06 0 0 Z " fill="#0B213B" transform="translate(269,114)"/>
<path d="M0 0 C0.99 0 1.98 0 3 0 C5.35723489 2.53184488 6 3.47190093 6 7 C4.35 6.67 2.7 6.34 1 6 C0.67 4.02 0.34 2.04 0 0 Z " fill="#112237" transform="translate(245,72)"/>
<path d="M0 0 C-0.66 0 -1.32 0 -2 0 C-2 0.66 -2 1.32 -2 2 C-0.35 2.33 1.3 2.66 3 3 C0.24921116 3.91692961 -1.35948913 4.10886083 -4.1875 4.0625 C-6.0746875 4.0315625 -6.0746875 4.0315625 -8 4 C-7.1875 2.0625 -7.1875 2.0625 -6 0 C-3 -1 -3 -1 0 0 Z " fill="#142D4A" transform="translate(181,69)"/>
<path d="M0 0 C2.64 0 5.28 0 8 0 C8 0.66 8 1.32 8 2 C3.545 3.485 3.545 3.485 -1 5 C-0.67 3.35 -0.34 1.7 0 0 Z " fill="#E6E8EB" transform="translate(109,41)"/>
<path d="M0 0 C1.32 0.33 2.64 0.66 4 1 C3.67 3.64 3.34 6.28 3 9 C2.67 9 2.34 9 2 9 C2 7.02 2 5.04 2 3 C0.35 3.33 -1.3 3.66 -3 4 C-2.01 2.68 -1.02 1.36 0 0 Z " fill="#A41F21" transform="translate(233,226)"/>
<path d="M0 0 C0.99 0.33 1.98 0.66 3 1 C2.67 1.66 2.34 2.32 2 3 C1.77377919 4.70363822 1.59111527 6.41328701 1.4375 8.125 C1.31181641 9.49011719 1.31181641 9.49011719 1.18359375 10.8828125 C1.12300781 11.58148438 1.06242188 12.28015625 1 13 C0.67 13 0.34 13 0 13 C-0.19397476 11.02145742 -0.38001321 9.0421352 -0.5625 7.0625 C-0.66691406 5.96035156 -0.77132812 4.85820312 -0.87890625 3.72265625 C-0.91886719 2.82417969 -0.95882812 1.92570313 -1 1 C-0.67 0.67 -0.34 0.34 0 0 Z " fill="#F9D6D1" transform="translate(174,162)"/>
<path d="M0 0 C1.85776765 3.13498292 2.20140476 5.37471432 2 9 C1.01 9.495 1.01 9.495 0 10 C-0.66 9.67 -1.32 9.34 -2 9 C-1.125 1.125 -1.125 1.125 0 0 Z " fill="#B92B30" transform="translate(179,148)"/>
<path d="M0 0 C0.66 0 1.32 0 2 0 C1.67 2.31 1.34 4.62 1 7 C0.01 7.33 -0.98 7.66 -2 8 C-2 4.23312136 -1.76462683 3.08809695 0 0 Z " fill="#D7DADD" transform="translate(93,110)"/>
<path d="M0 0 C1.65 0.33 3.3 0.66 5 1 C4.67 1.99 4.34 2.98 4 4 C3.34 4 2.68 4 2 4 C1.67 5.65 1.34 7.3 1 9 C0.67 9 0.34 9 0 9 C-1.125 2.25 -1.125 2.25 0 0 Z " fill="#1C3048" transform="translate(51,110)"/>
<path d="M0 0 C1 3 1 3 0.00390625 5.04296875 C-0.47175781 5.75066406 -0.94742188 6.45835938 -1.4375 7.1875 C-1.91058594 7.90292969 -2.38367188 8.61835937 -2.87109375 9.35546875 C-3.24363281 9.89816406 -3.61617188 10.44085938 -4 11 C-5 9 -5 9 -4.51171875 7.08984375 C-4.10373047 6.02443359 -4.10373047 6.02443359 -3.6875 4.9375 C-3.42324219 4.22464844 -3.15898438 3.51179688 -2.88671875 2.77734375 C-2 1 -2 1 0 0 Z " fill="#101C31" transform="translate(93,107)"/>
<path d="M0 0 C-3.36423277 2.96052484 -6.69159287 3.92289822 -11 5 C-11 4.34 -11 3.68 -11 3 C-9.73581754 2.30034557 -8.46334598 1.61565237 -7.1875 0.9375 C-6.47980469 0.55464844 -5.77210937 0.17179687 -5.04296875 -0.22265625 C-3 -1 -3 -1 0 0 Z " fill="#192C46" transform="translate(120,83)"/>
<path d="M0 0 C2 3 2 3 3 6 C-2.75 4.125 -2.75 4.125 -5 3 C-5 2.34 -5 1.68 -5 1 C-3.35 0.67 -1.7 0.34 0 0 Z " fill="#213042" transform="translate(197,76)"/>
<path d="M0 0 C2.31 0 4.62 0 7 0 C7.66 1.65 8.32 3.3 9 5 C7.68445015 4.5504955 6.37261642 4.09010284 5.0625 3.625 C4.33160156 3.36976562 3.60070312 3.11453125 2.84765625 2.8515625 C1 2 1 2 0 0 Z " fill="#ECEAE7" transform="translate(236,60)"/>
<path d="M0 0 C0.78375 0.04125 1.5675 0.0825 2.375 0.125 C2.705 1.445 3.035 2.765 3.375 4.125 C0.735 4.125 -1.905 4.125 -4.625 4.125 C-4.625 0.73492581 -3.1763743 0.15125592 0 0 Z " fill="#0A213C" transform="translate(138.625,36.875)"/>
<path d="M0 0 C0.66 0 1.32 0 2 0 C2 0.66 2 1.32 2 2 C2.66 2 3.32 2 4 2 C3.625 3.9375 3.625 3.9375 3 6 C2.01 6.495 2.01 6.495 1 7 C0.34 6.34 -0.32 5.68 -1 5 C-0.625 2.375 -0.625 2.375 0 0 Z " fill="#BA2C32" transform="translate(148,156)"/>
<path d="M0 0 C0.66 0.99 1.32 1.98 2 3 C1.125 6.1875 1.125 6.1875 0 9 C-0.99 9 -1.98 9 -3 9 C-2.67 7.68 -2.34 6.36 -2 5 C-1.67 5 -1.34 5 -1 5 C-0.67 3.35 -0.34 1.7 0 0 Z " fill="#E1DEDB" transform="translate(57,86)"/>
<path d="M0 0 C0.66 0.33 1.32 0.66 2 1 C0.25 4.875 0.25 4.875 -2 6 C-3.13350534 8.01669827 -3.13350534 8.01669827 -4 10 C-4.33 9.01 -4.66 8.02 -5 7 C-2 2 -2 2 0 0 Z " fill="#111C2F" transform="translate(67,81)"/>
<path d="M0 0 C1.0828125 0.37125 1.0828125 0.37125 2.1875 0.75 C1.125 2.25 1.125 2.25 -0.8125 3.75 C-4.5 3.9375 -4.5 3.9375 -7.8125 3.75 C-3.50480769 -0.31153846 -3.50480769 -0.31153846 0 0 Z " fill="#0A1E3A" transform="translate(121.8125,79.25)"/>
<path d="M0 0 C-0.66 0.66 -1.32 1.32 -2 2 C-1.67 2.99 -1.34 3.98 -1 5 C-1.66 5.66 -2.32 6.32 -3 7 C-5 4 -5 4 -5 2 C-5.33 1.34 -5.66 0.68 -6 0 C-2.25 -1.125 -2.25 -1.125 0 0 Z " fill="#D9D7D7" transform="translate(253,69)"/>
<path d="M0 0 C0.33 0.66 0.66 1.32 1 2 C1.99 2.33 2.98 2.66 4 3 C3.67 3.99 3.34 4.98 3 6 C0.5625 5.1875 0.5625 5.1875 -2 4 C-2.33 3.01 -2.66 2.02 -3 1 C-2.01 0.67 -1.02 0.34 0 0 Z " fill="#F1D5D1" transform="translate(172,113)"/>
<path d="M0 0 C4 0 4 0 5.75 1.5 C6.1625 1.995 6.575 2.49 7 3 C6.34 4.32 5.68 5.64 5 7 C3.10090078 5.10090078 1.55180586 3.18663553 0 1 C0 0.67 0 0.34 0 0 Z " fill="#DCD9DB" transform="translate(264,96)"/>
<path d="M0 0 C1.65 0 3.3 0 5 0 C4.01 1.485 4.01 1.485 3 3 C3 3.99 3 4.98 3 6 C1.68 5.34 0.36 4.68 -1 4 C-0.67 2.68 -0.34 1.36 0 0 Z " fill="#1A2E4D" transform="translate(96,97)"/>
<path d="M0 0 C0.66 0.33 1.32 0.66 2 1 C2 1.66 2 2.32 2 3 C0.35 3.33 -1.3 3.66 -3 4 C-3.99 2.68 -4.98 1.36 -6 0 C-3 -1 -3 -1 0 0 Z " fill="#E9EBE9" transform="translate(237,56)"/>
<path d="M0 0 C2.00720923 0.28674418 4.0085944 0.61866701 6 1 C3.94766315 3.2477975 2.99332739 4.0022242 0 5 C-0.5625 3.0625 -0.5625 3.0625 -1 1 C-0.67 0.67 -0.34 0.34 0 0 Z " fill="#DCDFE2" transform="translate(98,47)"/>
<path d="M0 0 C-0.33 1.32 -0.66 2.64 -1 4 C-1.99 3.67 -2.98 3.34 -4 3 C-4.33 3.66 -4.66 4.32 -5 5 C-5.33 3.68 -5.66 2.36 -6 1 C-3 0 -3 0 0 0 Z " fill="#B72C2F" transform="translate(235,229)"/>
<path d="M0 0 C1.65 0 3.3 0 5 0 C3.02 2.97 3.02 2.97 1 6 C0.34 5.67 -0.32 5.34 -1 5 C-0.67 3.35 -0.34 1.7 0 0 Z " fill="#F4D0CB" transform="translate(139,121)"/>
<path d="M0 0 C0.66 0.66 1.32 1.32 2 2 C2.66 1.67 3.32 1.34 4 1 C2.92598892 3.91517292 2.22189824 5.77810176 0 8 C0 7.34 0 6.68 0 6 C-0.66 5.67 -1.32 5.34 -2 5 C-1.34 5 -0.68 5 0 5 C-0.2784375 4.0409375 -0.2784375 4.0409375 -0.5625 3.0625 C-0.7790625 2.0415625 -0.7790625 2.0415625 -1 1 C-0.67 0.67 -0.34 0.34 0 0 Z " fill="#EEEBEB" transform="translate(266,90)"/>
<path d="M0 0 C2.9375 0.375 2.9375 0.375 6 1 C6.33 1.66 6.66 2.32 7 3 C4.625 3.625 4.625 3.625 2 4 C1.34 3.34 0.68 2.68 0 2 C0 1.34 0 0.68 0 0 Z " fill="#111F38" transform="translate(204,43)"/>
<path d="M0 0 C1.32 0.33 2.64 0.66 4 1 C3.625 3.9375 3.625 3.9375 3 7 C2.01 7.495 2.01 7.495 1 8 C0.67 5.36 0.34 2.72 0 0 Z " fill="#EEEDEB" transform="translate(225,110)"/>
<path d="M0 0 C1.5625 1.25 1.5625 1.25 3 3 C2.6875 5.1875 2.6875 5.1875 2 7 C1.01 6.67 0.02 6.34 -1 6 C-0.67 4.02 -0.34 2.04 0 0 Z " fill="#1D2F49" transform="translate(251,77)"/>
<path d="M0 0 C1.65 1.65 3.3 3.3 5 5 C3.0625 5.5625 3.0625 5.5625 1 6 C0 5 0 5 -0.0625 2.4375 C-0.041875 1.633125 -0.02125 0.82875 0 0 Z " fill="#27354B" transform="translate(242,67)"/>
<path d="M0 0 C1.98 0.66 3.96 1.32 6 2 C4 4 4 4 1.375 4.125 C0.59125 4.08375 -0.1925 4.0425 -1 4 C-0.67 2.68 -0.34 1.36 0 0 Z " fill="#13233C" transform="translate(212,46)"/>
</svg>
